:FULLY-SPECIFIED
:FORCE-ALL-JOINTS-BE-3DOF
:DEGREES
2039
root -3.25752 14.8448 23.0384 175.377 -9.37456 173.231
lfemur -8.99757 7.23974 -19.6662
ltibia 55.4335 -0 0
lfoot -25.3306 24.5585 0.0484335
ltoes -38.7759 0 0
rfemur -40.0679 -8.47526 6.09855
rtibia 44.5153 -0 0
rfoot 21.9088 -3.07639 1.2386
rtoes 6.66333 -0 0
lowerback 14.5756 1.32411 -6.89894
upperback 0.604845 0.613158 1.3507
thorax -7.67392 0.523433 5.21479
lowerneck -3.58877 -5.72507 -7.78803
upperneck 10.1945 -7.62955 2.00556
head 4.33372 -4.08865 1.32309
lclavicle 0 0 0
lhumerus -49.3831 -15.2537 100.66
lradius 91.1325 -0 0
lwrist 44.6255 0 0
lhand -25.5236 32.7476 -0.0014242
lfingers 0 0 0
lthumb 1.00593 62.7247 -0.00137552
rclavicle 0 0 0
rhumerus 31.7462 -16.3049 -88.4774
rradius 26.5384 -0 0
rwrist 61.5247 0 0
rhand -2.14345 -35.0618 -0.0485109
rfingers 0 0 0
rthumb 23.5341 -63.6228 -0.0399697
2040
root -3.2647 14.8353 22.9552 175.02 -10.5537 173.163
lfemur -7.91139 6.72868 -19.9465
ltibia 55.1376 -0 0
lfoot -25.7862 24.5039 0.0427
ltoes -39.264 0 0
rfemur -40.6358 -8.66075 5.92202
rtibia 43.6342 -0 0
rfoot 22.7223 -2.30483 1.09119
rtoes 6.91492 -0 0
lowerback 14.6757 1.42391 -7.09643
upperback 0.652148 0.692687 1.26851
thorax -7.68949 0.563978 5.22574
lowerneck -3.52897 -6.1377 -8.09655
upperneck 10.4031 -8.20681 2.22956
head 4.40027 -4.37676 1.42149
lclavicle 0 0 0
lhumerus -51.5497 -15.3079 102.023
lradius 93.2019 -0 0
lwrist 47.0655 0 0
lhand -25.5205 32.512 -0.00125573
lfingers 0 0 0
lthumb 1.00893 62.4892 -0.00121281
rclavicle 0 0 0
rhumerus 34.9839 -17.1086 -89.2883
rradius 24.1656 -0 0
rwrist 65.4612 0 0
rhand -2.30298 -34.9052 -0.0427728
rfingers 0 0 0
rthumb 23.3813 -63.4881 -0.0352421
2041
root -3.27102 14.8261 22.8776 174.684 -11.6623 173.106
lfemur -6.88928 6.25325 -20.2186
ltibia 54.8594 -0 0
lfoot -26.2144 24.4526 0.0369156
ltoes -39.7226 0 0
rfemur -41.1692 -8.83664 5.75774
rtibia 42.8062 -0 0
rfoot 23.485 -1.58171 0.942685
rtoes 7.15136 -0 0
lowerback 14.7694 1.51802 -7.28189
upperback 0.696502 0.767493 1.19133
thorax -7.70411 0.602087 5.23602
lowerneck -3.47069 -6.52521 -8.38712
upperneck 10.5975 -8.75007 2.43846
head 4.46239 -4.64765 1.5137
lclavicle 0 0 0
lhumerus -53.587 -15.3134 103.305
lradius 95.1467 -0 0
lwrist 49.3586 0 0
lhand -25.5175 32.2906 -0.00108574
lfingers 0 0 0
lthumb 1.01176 62.2678 -0.00104863
rclavicle 0 0 0
rhumerus 38.0501 -17.8228 -90.0959
rradius 21.9356 -0 0
rwrist 69.161 0 0
rhand -2.4529 -34.7581 -0.0369826
rfingers 0 0 0
rthumb 23.2377 -63.3615 -0.0304715
2042
root -3.27652 14.8176 22.806 174.372 -12.6941 173.058
lfemur -5.93692 5.81524 -20.4792
ltibia 54.6006 -0 0
lfoot -26.6129 24.4049 0.0311888
ltoes -40.1495 0 0
rfemur -41.6653 -9.00168 5.60629
rtibia 42.0356 -0 0
rfoot 24.193 -0.910655 0.795874
rtoes 7.37139 -0 0
lowerback 14.8563 1.60586 -7.45433
upperback 0.737686 0.837157 1.11956
thorax -7.71771 0.637552 5.24557
lowerneck -3.41463 -6.88554 -8.65807
upperneck 10.7767 -9.25623 2.63145
head 4.51983 -4.89981 1.59927
lclavicle 0 0 0
lhumerus -55.4824 -15.2791 104.498
lradius 96.9565 -0 0
lwrist 51.4925 0 0
lhand -25.5148 32.0846 -0.000917398
lfingers 0 0 0
lthumb 1.01438 62.0618 -0.000886041
rclavicle 0 0 0
rhumerus 40.9236 -18.4493 -90.8854
rradius 19.8604 -0 0
rwrist 72.6038 0 0
rhand -2.59239 -34.6212 -0.0312487
rfingers 0 0 0
rthumb 23.1041 -63.2438 -0.0257473
2043
root -3.28125 14.8096 22.7405 174.084 -13.6432 173.019
lfemur -5.06007 5.41633 -20.7251
ltibia 54.3626 -0 0
lfoot -26.9792 24.3611 0.0256302
ltoes -40.5419 0 0
rfemur -42.1213 -9.15457 5.46825
rtibia 41.327 -0 0
rfoot 24.8424 -0.295264 0.653577
rtoes 7.57371 -0 0
lowerback 14.936 1.68687 -7.61279
upperback 0.77548 0.901262 1.05361
thorax -7.73022 0.670165 5.25435
lowerneck -3.36153 -7.21664 -8.90773
upperneck 10.9403 -9.72218 2.80775
head 4.57232 -5.13176 1.67776
lclavicle 0 0 0
lhumerus -57.2238 -15.214 105.593
lradius 98.6207 -0 0
lwrist 53.4547 0 0
lhand -25.5123 31.8952 -0.000753972
lfingers 0 0 0
lthumb 1.0168 61.8723 -0.000728201
rclavicle 0 0 0
rhumerus 43.5828 -18.9914 -91.6424
rradius 17.9522 -0 0
rwrist 75.7695 0 0
rhand -2.72064 -34.4953 -0.0256821
rfingers 0 0 0
rthumb 22.9812 -63.1355 -0.0211608
2044
root -3.28526 14.8023 22.6817 173.823 -14.5033 172.988
lfemur -4.26452 5.05813 -20.9531
ltibia 54.1469 -0 0
lfoot -27.3112 24.3214 0.0203515
ltoes -40.8976 0 0
rfemur -42.5344 -9.29405 5.34418
rtibia 40.685 -0 0
rfoot 25.4295 0.260928 0.518627
rtoes 7.75705 -0 0
lowerback 15.008 1.76046 -7.75628
upperback 0.809664 0.959387 0.993884
thorax -7.74154 0.699719 5.2623
lowerneck -3.31213 -7.51646 -9.13437
upperneck 11.0875 -10.1448 2.96654
head 4.61964 -5.342 1.74873
lclavicle 0 0 0
lhumerus -58.7998 -15.1273 106.582
lradius 100.129 -0 0
lwrist 55.2327 0 0
lhand -25.5101 31.7236 -0.000598743
lfingers 0 0 0
lthumb 1.01899 61.7007 -0.000578277
rclavicle 0 0 0
rhumerus 46.0062 -19.4534 -92.3529
rradius 16.2231 -0 0
rwrist 78.6382 0 0
rhand -2.83685 -34.3813 -0.0203947
rfingers 0 0 0
rthumb 22.8699 -63.0374 -0.0168043
2045
root -3.28859 14.7958 22.6297 173.59 -15.2684 172.964
lfemur -3.55612 4.74223 -21.1599
ltibia 53.9551 -0 0
lfoot -27.6065 24.2862 0.0154634
ltoes -41.2139 0 0
rfemur -42.9016 -9.41884 5.23465
rtibia 40.1139 -0 0
rfoot 25.9505 0.754416 0.393824
rtoes 7.9201 -0 0
lowerback 15.0719 1.82607 -7.88384
upperback 0.840016 1.01111 0.940791
thorax -7.75161 0.726005 5.26937
lowerneck -3.26715 -7.78296 -9.33631
upperneck 11.2175 -10.5211 3.10703
head 4.66151 -5.52904 1.81172
lclavicle 0 0 0
lhumerus -60.1994 -15.0282 107.46
lradius 101.47 -0 0
lwrist 56.8141 0 0
lhand -25.508 31.5709 -0.000454977
lfingers 0 0 0
lthumb 1.02094 61.548 -0.000439425
rclavicle 0 0 0
rhumerus 48.1722 -19.8401 -93.0033
rradius 14.6853 -0 0
rwrist 81.1896 0 0
rhand -2.9402 -34.2799 -0.0154977
rfingers 0 0 0
rthumb 22.7709 -62.9501 -0.0127695
2046
root -3.29128 14.7901 22.5848 173.388 -15.9324 172.945
lfemur -2.94071 4.47017 -21.3424
ltibia 53.7887 -0 0
lfoot -27.8627 24.2556 0.0110745
ltoes -41.4884 0 0
rfemur -43.2202 -9.52768 5.14022
rtibia 39.6184 -0 0
rfoot 26.4018 1.18171 0.281893
rtoes 8.0616 -0 0
lowerback 15.1273 1.88311 -7.99447
upperback 0.866317 1.05602 0.89474
thorax -7.76035 0.748817 5.2755
lowerneck -3.22733 -8.01409 -9.51182
upperneck 11.3297 -10.8478 3.22838
head 4.69769 -5.69138 1.86629
lclavicle 0 0 0
lhumerus -61.412 -14.9255 108.219
lradius 102.634 -0 0
lwrist 58.1864 0 0
lhand -25.5063 31.4384 -0.000325868
lfingers 0 0 0
lthumb 1.02262 61.4155 -0.00031473
rclavicle 0 0 0
rhumerus 50.0597 -20.1566 -93.5814
rradius 13.3508 -0 0
rwrist 83.4036 0 0
rhand -3.02987 -34.1919 -0.0111
rfingers 0 0 0
rthumb 22.685 -62.8744 -0.00914597
2047
root -3.29338 14.7852 22.5475 173.218 -16.4893 172.931
lfemur -2.42417 4.24356 -21.4977
ltibia 53.6491 -0 0
lfoot -28.0776 24.23 0.00728883
ltoes -41.7185 0 0
rfemur -43.4874 -9.61936 5.0615
rtibia 39.2029 -0 0
rfoot 26.7795 1.53933 0.185445
rtoes 8.18025 -0 0
lowerback 15.1736 1.93103 -8.08719
upperback 0.888344 1.0937 0.856139
thorax -7.76767 0.767947 5.28063
lowerneck -3.19337 -8.20781 -9.6592
upperneck 11.4234 -11.122 3.32973
head 4.72792 -5.82754 1.91198
lclavicle 0 0 0
lhumerus -62.4272 -14.8274 108.853
lradius 103.61 -0 0
lwrist 59.3371 0 0
lhand -25.5048 31.3273 -0.000214489
lfingers 0 0 0
lthumb 1.02404 61.3044 -0.000207158
rclavicle 0 0 0
rhumerus 51.6479 -20.4081 -94.0753
rradius 12.2317 -0 0
rwrist 85.2602 0 0
rhand -3.10506 -34.1181 -0.00730611
rfingers 0 0 0
rthumb 22.6129 -62.8109 -0.00601998
